<?xml version="1.0" encoding="utf-8"?><svg height="13" width="18" xmlns:xlink="http://www.w3.org/1999/xlink" xmlns="http://www.w3.org/2000/svg" viewBox="0 0 18 13">    <path fill="#ffffff" fill-rule="evenodd" d="M 12.12 0.19 C 11.88 -0.06 11.47 -0.06 11.21 0.19 C 10.97 0.44 10.97 0.84 11.21 1.09 L 15.81 5.69 L 0.64 5.69 C 0.28 5.69 0 5.97 0 6.32 C 0 6.68 0.28 6.97 0.64 6.97 L 15.81 6.97 L 11.21 11.56 C 10.97 11.81 10.97 12.22 11.21 12.47 C 11.47 12.72 11.88 12.72 12.12 12.47 L 17.81 6.78 C 18.06 6.53 18.06 6.12 17.81 5.88 L 12.12 0.19 L 12.12 0.19 Z M 12.12 0.19" /></svg>